<mxfile host="app.diagrams.net" modified="2020-04-06T01:35:34.350Z" agent="5.0 (Windows)" etag="bSIn9PzcwX6Orl250r-R" version="12.9.8" type="github">
  <diagram id="OwN22ceddt_HI1kbPNsA" name="Page-1">
    <mxGraphModel dx="2872" dy="1166" grid="1" gridSize="10" guides="1" tooltips="1" connect="1" arrows="1" fold="1" page="1" pageScale="1" pageWidth="850" pageHeight="1100" math="0" shadow="0">
      <root>
        <mxCell id="0" />
        <mxCell id="1" parent="0" />
        <mxCell id="RebIltJZuqrViOZ0RSFz-8" value="&lt;span style=&quot;font-size: 16px&quot;&gt;SESSIONS Database / Bolt Buckets / METHODS&lt;/span&gt;" style="rounded=0;whiteSpace=wrap;html=1;fontColor=#FAFAFA;align=center;verticalAlign=top;fontStyle=1;fontSize=16;" parent="1" vertex="1">
          <mxGeometry x="20" y="20" width="470" height="1390" as="geometry" />
        </mxCell>
        <mxCell id="RebIltJZuqrViOZ0RSFz-9" value="&lt;div&gt;ADD SESSION&lt;br&gt;&lt;/div&gt;&lt;div&gt;&lt;br&gt;&lt;/div&gt;&lt;div&gt;func AddSessionToDb (ses Session) ( error ) { }&lt;/div&gt;&lt;div&gt;&lt;br&gt;&lt;/div&gt;&lt;div&gt;--adds a session to the database using the&amp;nbsp; session ID set on the cookie and the user ID it references&lt;br&gt;&lt;/div&gt;&lt;div&gt;&lt;br&gt;&lt;/div&gt;&lt;div&gt;&lt;pre style=&quot;background-color: #2b2b2b ; color: #a9b7c6 ; font-family: &amp;#34;consolas&amp;#34; ; font-size: 9.8pt&quot;&gt;&lt;span style=&quot;color: #c7773e&quot;&gt;func &lt;/span&gt;&lt;span style=&quot;color: #e6b163&quot;&gt;AddSession&lt;/span&gt;(id &lt;span style=&quot;color: #c7773e&quot;&gt;string&lt;/span&gt;&lt;span style=&quot;color: #cc7832&quot;&gt;, &lt;/span&gt;usr &lt;span style=&quot;color: #c7773e&quot;&gt;string&lt;/span&gt;) &lt;span style=&quot;color: #c7773e&quot;&gt;error &lt;/span&gt;{&lt;br&gt;   &lt;span style=&quot;color: #787878&quot;&gt;// Check if session exists&lt;br&gt;&lt;/span&gt;&lt;span style=&quot;color: #787878&quot;&gt;   &lt;/span&gt;_&lt;span style=&quot;color: #cc7832&quot;&gt;, &lt;/span&gt;ex := &lt;span style=&quot;color: #b09d79&quot;&gt;PollUsrSession&lt;/span&gt;(id)&lt;br&gt;   &lt;span style=&quot;color: #c7773e&quot;&gt;if &lt;/span&gt;ex {&lt;br&gt;      &lt;span style=&quot;color: #c7773e&quot;&gt;return &lt;/span&gt;&lt;span style=&quot;color: #afbf7e&quot;&gt;errors&lt;/span&gt;.&lt;span style=&quot;color: #b09d79&quot;&gt;New&lt;/span&gt;(&lt;span style=&quot;color: #6a8759&quot;&gt;&quot;Sessions Already Exists&quot;&lt;/span&gt;)&lt;br&gt;   }&lt;br&gt;&lt;br&gt;   &lt;span style=&quot;color: #c7773e&quot;&gt;return &lt;/span&gt;&lt;span style=&quot;color: #afbf7e&quot;&gt;security&lt;/span&gt;.SessionsDb.&lt;span style=&quot;color: #b09d79&quot;&gt;Update&lt;/span&gt;(&lt;span style=&quot;color: #c7773e&quot;&gt;func&lt;/span&gt;(tx *&lt;span style=&quot;color: #afbf7e&quot;&gt;bolt&lt;/span&gt;.&lt;span style=&quot;color: #6fafbd&quot;&gt;Tx&lt;/span&gt;) &lt;span style=&quot;color: #c7773e&quot;&gt;error &lt;/span&gt;{&lt;br&gt;      &lt;span style=&quot;color: #787878&quot;&gt;// Check if the bucket exists&lt;br&gt;&lt;/span&gt;&lt;span style=&quot;color: #787878&quot;&gt;      &lt;/span&gt;b := tx.&lt;span style=&quot;color: #b09d79&quot;&gt;Bucket&lt;/span&gt;([]&lt;span style=&quot;color: #c7773e&quot;&gt;byte&lt;/span&gt;(&lt;span style=&quot;color: #6a8759&quot;&gt;&quot;sessions&quot;&lt;/span&gt;))&lt;br&gt;      &lt;span style=&quot;color: #c7773e&quot;&gt;if &lt;/span&gt;b == &lt;span style=&quot;color: #c7773e&quot;&gt;nil &lt;/span&gt;{&lt;br&gt;         &lt;span style=&quot;color: #c7773e&quot;&gt;return &lt;/span&gt;&lt;span style=&quot;color: #afbf7e&quot;&gt;errors&lt;/span&gt;.&lt;span style=&quot;color: #b09d79&quot;&gt;New&lt;/span&gt;(&lt;span style=&quot;color: #6a8759&quot;&gt;&quot;Bucket not found: Sessions&quot;&lt;/span&gt;)&lt;br&gt;      }&lt;br&gt;&lt;br&gt;      s := &lt;span style=&quot;color: #6fafbd&quot;&gt;Session&lt;/span&gt;{Id: id&lt;span style=&quot;color: #cc7832&quot;&gt;, &lt;/span&gt;User: usr&lt;span style=&quot;color: #cc7832&quot;&gt;, &lt;/span&gt;SessionTime: &lt;span style=&quot;color: #afbf7e&quot;&gt;time&lt;/span&gt;.&lt;span style=&quot;color: #b09d79&quot;&gt;Now&lt;/span&gt;()}&lt;br&gt;&lt;br&gt;      &lt;span style=&quot;color: #787878&quot;&gt;// Marshal the message into a []byte&lt;br&gt;&lt;/span&gt;&lt;span style=&quot;color: #787878&quot;&gt;      &lt;/span&gt;&lt;span style=&quot;color: #c7773e&quot;&gt;if &lt;/span&gt;buff&lt;span style=&quot;color: #cc7832&quot;&gt;, &lt;/span&gt;err := &lt;span style=&quot;color: #afbf7e&quot;&gt;json&lt;/span&gt;.&lt;span style=&quot;color: #b09d79&quot;&gt;Marshal&lt;/span&gt;(s)&lt;span style=&quot;color: #cc7832&quot;&gt;; &lt;/span&gt;err != &lt;span style=&quot;color: #c7773e&quot;&gt;nil &lt;/span&gt;{&lt;br&gt;         &lt;span style=&quot;color: #c7773e&quot;&gt;return &lt;/span&gt;err&lt;br&gt;      } &lt;span style=&quot;color: #c7773e&quot;&gt;else &lt;/span&gt;{&lt;br&gt;         err1 := b.&lt;span style=&quot;color: #b09d79&quot;&gt;Put&lt;/span&gt;([]&lt;span style=&quot;color: #c7773e&quot;&gt;byte&lt;/span&gt;(id)&lt;span style=&quot;color: #cc7832&quot;&gt;, &lt;/span&gt;buff)&lt;br&gt;         &lt;span style=&quot;color: #c7773e&quot;&gt;if &lt;/span&gt;err1 != &lt;span style=&quot;color: #c7773e&quot;&gt;nil &lt;/span&gt;{&lt;br&gt;            &lt;span style=&quot;color: #c7773e&quot;&gt;return &lt;/span&gt;err1&lt;br&gt;         } &lt;span style=&quot;color: #c7773e&quot;&gt;else &lt;/span&gt;{&lt;br&gt;            &lt;span style=&quot;color: #c7773e&quot;&gt;return nil&lt;br&gt;&lt;/span&gt;&lt;span style=&quot;color: #c7773e&quot;&gt;         &lt;/span&gt;}&lt;br&gt;      }&lt;br&gt;   })&lt;br&gt;}&lt;/pre&gt;&lt;/div&gt;" style="rounded=0;whiteSpace=wrap;html=1;fontColor=#FAFAFA;align=left;spacingLeft=8;fillColor=#032A06;" parent="1" vertex="1">
          <mxGeometry x="30" y="60" width="450" height="590" as="geometry" />
        </mxCell>
        <mxCell id="RebIltJZuqrViOZ0RSFz-10" value="&lt;div&gt;REMOVE SESSION&lt;br&gt;&lt;/div&gt;&lt;div&gt;&lt;br&gt;&lt;/div&gt;&lt;div&gt;func RemoveSessionFromDb ( id string) ( error ){}&lt;/div&gt;&lt;div&gt;&lt;br&gt;&lt;/div&gt;&lt;div&gt;--Removes a member into the member database bolt bucket&lt;/div&gt;&lt;div&gt;&lt;br&gt;&lt;/div&gt;&lt;div&gt;&lt;pre style=&quot;background-color: #2b2b2b ; color: #a9b7c6 ; font-family: &amp;#34;consolas&amp;#34; ; font-size: 9.8pt&quot;&gt;&lt;span style=&quot;color: #c7773e&quot;&gt;func &lt;/span&gt;RemoveSession(id string) error {&lt;br&gt;   &lt;span style=&quot;color: #c7773e&quot;&gt;return &lt;/span&gt;security.SessionsDb.Update(&lt;span style=&quot;color: #c7773e&quot;&gt;func&lt;/span&gt;(tx *bolt.Tx) error {&lt;br&gt;      &lt;span style=&quot;color: #787878&quot;&gt;// Check if the bucket exists&lt;br&gt;&lt;/span&gt;&lt;span style=&quot;color: #787878&quot;&gt;      &lt;/span&gt;b := tx.Bucket([]byte(&lt;span style=&quot;color: #6a8759&quot;&gt;&quot;sessions&quot;&lt;/span&gt;))&lt;br&gt;      &lt;span style=&quot;color: #c7773e&quot;&gt;if &lt;/span&gt;b == nil {&lt;br&gt;         &lt;span style=&quot;color: #c7773e&quot;&gt;return &lt;/span&gt;errors.New(&lt;span style=&quot;color: #6a8759&quot;&gt;&quot;Bucket not found: sessions&quot;&lt;/span&gt;)&lt;br&gt;      }&lt;br&gt;      &lt;span style=&quot;color: #787878&quot;&gt;// Cursor&lt;br&gt;&lt;/span&gt;&lt;span style=&quot;color: #787878&quot;&gt;      &lt;/span&gt;c := b.Cursor()&lt;br&gt;&lt;br&gt;      prefix := []byte(id) &lt;span style=&quot;color: #787878&quot;&gt;// finds the key with this prefix&lt;br&gt;&lt;/span&gt;&lt;span style=&quot;color: #787878&quot;&gt;      // Range bucket for key&lt;br&gt;&lt;/span&gt;&lt;span style=&quot;color: #787878&quot;&gt;      &lt;/span&gt;&lt;span style=&quot;color: #c7773e&quot;&gt;for &lt;/span&gt;k&lt;span style=&quot;color: #cc7832&quot;&gt;, &lt;/span&gt;_ := c.Seek(prefix)&lt;span style=&quot;color: #cc7832&quot;&gt;; &lt;/span&gt;k != nil &lt;br&gt;              &amp;amp;&amp;amp; bytes.HasPrefix(k&lt;span style=&quot;color: #cc7832&quot;&gt;, &lt;/span&gt;prefix)&lt;span style=&quot;color: #cc7832&quot;&gt;; &lt;/span&gt;k&lt;span style=&quot;color: #cc7832&quot;&gt;, &lt;/span&gt;_ = c.Next() {&lt;br&gt;         b.Delete([]byte(prefix))&lt;br&gt;         &lt;span style=&quot;color: #c7773e&quot;&gt;return &lt;/span&gt;nil&lt;br&gt;      }&lt;br&gt;      &lt;span style=&quot;color: #c7773e&quot;&gt;return &lt;/span&gt;errors.New(&lt;span style=&quot;color: #6a8759&quot;&gt;&quot;Session not found: &quot; &lt;/span&gt;+ id)&lt;br&gt;   })&lt;br&gt;}&lt;/pre&gt;&lt;/div&gt;" style="rounded=0;whiteSpace=wrap;html=1;fontColor=#FAFAFA;align=left;spacingLeft=8;fillColor=#330000;verticalAlign=top;" parent="1" vertex="1">
          <mxGeometry x="30" y="670" width="450" height="440" as="geometry" />
        </mxCell>
        <mxCell id="RebIltJZuqrViOZ0RSFz-14" value="&lt;div&gt;CREATE SESSION DATABASE DURING INITIALIZATION&lt;br&gt;&lt;/div&gt;&lt;div&gt;&lt;br&gt;&lt;/div&gt;&lt;div&gt;func CreateMemberDB (&amp;nbsp; ) ( error ) { }&lt;/div&gt;&lt;div&gt;&lt;br&gt;&lt;/div&gt;&lt;div&gt;--Check if a bucket exists.&amp;nbsp; If not, then creates a bucket to use for members.&amp;nbsp; With this system there is usually a bucket found after the first save.&lt;br&gt;&lt;/div&gt;" style="rounded=0;whiteSpace=wrap;html=1;fontColor=#FAFAFA;align=left;spacingLeft=8;fillColor=#336600;" parent="1" vertex="1">
          <mxGeometry x="-580" y="1334" width="450" height="119" as="geometry" />
        </mxCell>
        <mxCell id="RebIltJZuqrViOZ0RSFz-16" value="SESSION DATABASE" style="rounded=0;whiteSpace=wrap;html=1;fontColor=#FAFAFA;strokeColor=#FFFFFF;fillColor=#663300;fontStyle=1;fontSize=15;" parent="1" vertex="1">
          <mxGeometry x="1275" y="810" width="170" height="90" as="geometry" />
        </mxCell>
        <mxCell id="6ThwEPi3yd1xH4KHOWwl-1" value="&lt;div&gt;POLL MEMBER BY SESSION&lt;br&gt;&lt;/div&gt;&lt;div&gt;&lt;br&gt;&lt;/div&gt;&lt;div&gt;func PollMembersBySession ( id string ) ( Member, error ) { }&lt;/div&gt;&lt;div&gt;&lt;br&gt;&lt;/div&gt;&lt;div&gt;--Retrieves member from the members database by their Member ID generated using their email address with crypto.GetUserSecurityCode&lt;br&gt;&lt;/div&gt;" style="rounded=0;whiteSpace=wrap;html=1;fontColor=#FAFAFA;align=left;spacingLeft=8;fillColor=#663300;" parent="1" vertex="1">
          <mxGeometry x="-580" y="1210" width="450" height="115" as="geometry" />
        </mxCell>
      </root>
    </mxGraphModel>
  </diagram>
</mxfile>
